<?xml version="1.0" encoding="utf-8"?>
<!-- Generator: Adobe Illustrator 16.0.0, SVG Export Plug-In . SVG Version: 6.00 Build 0)  -->
<!DOCTYPE svg PUBLIC "-//W3C//DTD SVG 1.1//EN" "http://www.w3.org/Graphics/SVG/1.1/DTD/svg11.dtd">
<svg version="1.1" id="Capa_1" xmlns="http://www.w3.org/2000/svg" xmlns:xlink="http://www.w3.org/1999/xlink" x="0px" y="0px"
	 width="595.281px" height="841.891px" viewBox="0 0 595.281 841.891" enable-background="new 0 0 595.281 841.891"
	 xml:space="preserve">
<g>
	<path fill="#FFFFFF" d="M77.498,458.15H2.307H0v186.025l55.101-50.636c53.984,75.675,142.495,125.046,242.54,125.046
		c151.797,0,277.029-113.624,295.334-260.436h-75.191C500.072,563.738,408.251,644.176,297.64,644.176
		c-78.354,0-147.332-40.404-187.141-101.532l91.934-84.493H77.498z"/>
	<path fill="#FFFFFF" d="M297.64,123.305c-151.796,0-277.028,113.624-295.333,260.435h75.191
		C95.208,278.152,187.03,197.715,297.64,197.715c80.697,0,151.424,42.823,190.639,107.002l-79.023,79.023h74.41h34.117h75.191h2.307
		V197.715l-53.277,53.278C488.242,173.792,398.837,123.305,297.64,123.305z"/>
</g>
</svg>
