<?xml version="1.0" standalone="no"?>
<!DOCTYPE svg PUBLIC "-//W3C//DTD SVG 20010904//EN"
 "http://www.w3.org/TR/2001/REC-SVG-20010904/DTD/svg10.dtd">
<svg version="1.0" xmlns="http://www.w3.org/2000/svg"
 width="99.000000pt" height="99.000000pt" viewBox="0 0 99.000000 99.000000"
 preserveAspectRatio="xMidYMid meet">
<metadata>
Created by potrace 1.11, written by Peter Selinger 2001-2013
</metadata>
<g transform="translate(0.000000,99.000000) scale(0.100000,-0.100000)"
fill="#000000" stroke="none">
<path d="M466 964 c-4 -15 -66 -124 -138 -243 -72 -119 -163 -269 -202 -334
-39 -64 -79 -120 -89 -123 -30 -9 -17 -47 18 -55 59 -12 380 -161 400 -185 25
-29 55 -31 62 -5 5 21 11 24 183 99 63 27 135 59 160 70 25 12 56 22 70 24 31
4 37 31 11 55 -10 10 -37 46 -58 80 -202 329 -366 600 -367 608 -6 40 -41 46
-50 9z m14 -373 l0 -339 -197 0 c-109 0 -201 2 -205 5 -4 2 63 119 149 261 86
141 177 292 202 334 25 43 47 78 49 78 1 0 2 -153 2 -339z m134 159 c52 -85
123 -200 156 -255 34 -55 79 -129 100 -163 22 -35 38 -68 35 -72 -3 -4 -95 -8
-205 -8 l-200 0 0 341 c0 214 4 336 10 327 5 -8 52 -85 104 -170z m-136 -603
c3 -103 5 -102 -100 -54 -40 18 -123 55 -185 82 -62 27 -108 52 -104 55 5 3
94 5 198 4 l188 -1 3 -86z m407 81 c6 -5 -356 -168 -374 -168 -7 0 -11 29 -11
84 0 71 3 85 17 88 26 5 363 2 368 -4z"/>
</g>
</svg>
