<?xml version="1.0" encoding="utf-8"?>
<!-- Generator: Adobe Illustrator 16.0.0, SVG Export Plug-In . SVG Version: 6.00 Build 0)  -->
<!DOCTYPE svg PUBLIC "-//W3C//DTD SVG 1.1//EN" "http://www.w3.org/Graphics/SVG/1.1/DTD/svg11.dtd">
<svg version="1.1" id="Calque_1" xmlns="http://www.w3.org/2000/svg" xmlns:xlink="http://www.w3.org/1999/xlink" x="0px" y="0px"
	 width="116.023px" height="122px" viewBox="0 0 116.023 122" enable-background="new 0 0 116.023 122" xml:space="preserve">
<g>
	<g>
		<g>
			<defs>
				<path id="SVGID_1_" d="M58.024,114c2.209,0,4,1.791,4,4s-1.791,4-4,4c-2.208,0-4-1.791-4-4S55.816,114,58.024,114L58.024,114z"
					/>
			</defs>
			<use xlink:href="#SVGID_1_"  overflow="visible" fill="#4BB9AD"/>
			<clipPath id="SVGID_2_">
				<use xlink:href="#SVGID_1_"  overflow="visible"/>
			</clipPath>
			<g clip-path="url(#SVGID_2_)">
			</g>
		</g>
	</g>
	<g>
		<g>
			<defs>
				<path id="SVGID_3_" d="M3.524,89c1.934,0,3.5,1.566,3.5,3.5S5.458,96,3.524,96c-1.934,0-3.5-1.566-3.5-3.5S1.591,89,3.524,89
					L3.524,89z"/>
			</defs>
			<use xlink:href="#SVGID_3_"  overflow="visible" fill="#4BB9AD"/>
			<clipPath id="SVGID_4_">
				<use xlink:href="#SVGID_3_"  overflow="visible"/>
			</clipPath>
			<g clip-path="url(#SVGID_4_)">
			</g>
		</g>
	</g>
	<g>
		<g>
			<defs>
				<path id="SVGID_5_" d="M112.524,89c1.935,0,3.5,1.566,3.5,3.5s-1.565,3.5-3.5,3.5c-1.934,0-3.5-1.566-3.5-3.5
					S110.591,89,112.524,89L112.524,89z"/>
			</defs>
			<use xlink:href="#SVGID_5_"  overflow="visible" fill="#4BB9AD"/>
			<clipPath id="SVGID_6_">
				<use xlink:href="#SVGID_5_"  overflow="visible"/>
			</clipPath>
			<g clip-path="url(#SVGID_6_)">
			</g>
		</g>
	</g>
	<g>
		<g>
			<defs>
				<path id="SVGID_7_" d="M58.024,0c1.656,0,3,1.344,3,3c0,1.657-1.344,3-3,3s-3-1.343-3-3C55.024,1.344,56.368,0,58.024,0
					L58.024,0z"/>
			</defs>
			<use xlink:href="#SVGID_7_"  overflow="visible" fill="#4BB9AD"/>
			<clipPath id="SVGID_8_">
				<use xlink:href="#SVGID_7_"  overflow="visible"/>
			</clipPath>
			<g clip-path="url(#SVGID_8_)">
			</g>
		</g>
	</g>
	<g>
		<g>
			<defs>
				
					<rect id="SVGID_9_" x="29.024" y="-3.55" transform="matrix(-0.855 -0.5186 0.5186 -0.855 30.5445 105.5384)" width="2" height="104.1"/>
			</defs>
			<use xlink:href="#SVGID_9_"  overflow="visible" fill="#4BB9AD"/>
			<clipPath id="SVGID_10_">
				<use xlink:href="#SVGID_9_"  overflow="visible"/>
			</clipPath>
			<g clip-path="url(#SVGID_10_)">
			</g>
		</g>
	</g>
	<g>
		<g>
			<defs>
				<polygon id="SVGID_11_" points="59.733,3.014 58.013,4.05 112.315,92.986 114.036,91.95 				"/>
			</defs>
			<use xlink:href="#SVGID_11_"  overflow="visible" fill="#4BB9AD"/>
			<clipPath id="SVGID_12_">
				<use xlink:href="#SVGID_11_"  overflow="visible"/>
			</clipPath>
			<g clip-path="url(#SVGID_12_)">
			</g>
		</g>
	</g>
	<g>
		<g>
			<defs>
				
					<rect id="SVGID_13_" x="30.025" y="76.453" transform="matrix(-0.4063 0.9137 -0.9137 -0.4063 140.4856 120.721)" width="2" height="59.093"/>
			</defs>
			<use xlink:href="#SVGID_13_"  overflow="visible" fill="#4BB9AD"/>
			<clipPath id="SVGID_14_">
				<use xlink:href="#SVGID_13_"  overflow="visible"/>
			</clipPath>
			<g clip-path="url(#SVGID_14_)">
			</g>
		</g>
	</g>
	<g>
		<g>
			<defs>
				<polygon id="SVGID_15_" points="112.024,94.834 111.21,92.993 57.024,117.167 57.839,119.008 				"/>
			</defs>
			<use xlink:href="#SVGID_15_"  overflow="visible" fill="#4BB9AD"/>
			<clipPath id="SVGID_16_">
				<use xlink:href="#SVGID_15_"  overflow="visible"/>
			</clipPath>
			<g clip-path="url(#SVGID_16_)">
			</g>
		</g>
	</g>
	<g>
		<g>
			<defs>
				<rect id="SVGID_17_" x="4.024" y="91" width="107" height="2"/>
			</defs>
			<use xlink:href="#SVGID_17_"  overflow="visible" fill="#4BB9AD"/>
			<clipPath id="SVGID_18_">
				<use xlink:href="#SVGID_17_"  overflow="visible"/>
			</clipPath>
			<g clip-path="url(#SVGID_18_)">
			</g>
		</g>
	</g>
	<g>
		<g>
			<defs>
				<rect id="SVGID_19_" x="57.024" y="3" width="2" height="114"/>
			</defs>
			<use xlink:href="#SVGID_19_"  overflow="visible" fill="#4BB9AD"/>
			<clipPath id="SVGID_20_">
				<use xlink:href="#SVGID_19_"  overflow="visible"/>
			</clipPath>
			<g clip-path="url(#SVGID_20_)">
			</g>
		</g>
	</g>
</g>
</svg>
